<svg xmlns="http://www.w3.org/2000/svg" fill-rule="evenodd" stroke-linejoin="round" stroke-miterlimit="2" clip-rule="evenodd" viewBox="0 0 64 64" id="text-file">
  <g transform="translate(-1928 -168)">
    <path fill="#e2eaf2" d="M1888.76,91L1862,91C1860.34,91 1859,92.343 1859,94L1859,146C1859,147.657 1860.34,149 1862,149L1898,149C1899.66,149 1901,147.657 1901,146L1901,103.243C1901,102.182 1900.58,101.164 1899.83,100.414L1891.59,92.172C1890.84,91.421 1889.82,91 1888.76,91Z" transform="translate(80 80)"></path>
    <path fill="#b8cfee" d="M1888.76,91L1888,91C1888.55,91 1889,91.448 1889,92L1889,100C1889,101.657 1890.34,103 1892,103L1900,103C1900.55,103 1901,103.448 1901,104L1901,103.243C1901,102.182 1900.58,101.164 1899.83,100.414L1891.59,92.172C1890.84,91.421 1889.82,91 1888.76,91Z" transform="translate(80 80)"></path>
    <path fill="#7ea2b6" d="M265,106L291.88,106C293.116,106 294.12,105.552 294.12,105C294.12,104.448 293.116,104 291.88,104L265,104C263.764,104 262.76,104.448 262.76,105C262.76,105.552 263.764,106 265,106Z" transform="matrix(.44643 0 0 1 1842.7 86)"></path>
    <path fill="#7ea2b6" d="M265,106L291.88,106C293.116,106 294.12,105.552 294.12,105C294.12,104.448 293.116,104 291.88,104L265,104C263.764,104 262.76,104.448 262.76,105C262.76,105.552 263.764,106 265,106Z" transform="matrix(.44643 0 0 1 1842.7 90)"></path>
    <path fill="#7ea2b6" d="M265,106L293,106C294.288,106 295.333,105.552 295.333,105C295.333,104.448 294.288,104 293,104L265,104C263.712,104 262.667,104.448 262.667,105C262.667,105.552 263.712,106 265,106Z" transform="matrix(.42857 0 0 1 1847.43 94)"></path>
    <path fill="#7ea2b6" d="M265,106L293,106C294.288,106 295.333,105.552 295.333,105C295.333,104.448 294.288,104 293,104L265,104C263.712,104 262.667,104.448 262.667,105C262.667,105.552 263.712,106 265,106Z" transform="matrix(.42857 0 0 1 1847.43 98)"></path>
    <path fill="#7ea2b6" d="M265,106L293,106C293.594,106 294.077,105.552 294.077,105C294.077,104.448 293.594,104 293,104L265,104C264.406,104 263.923,104.448 263.923,105C263.923,105.552 264.406,106 265,106Z" transform="matrix(.92857 0 0 1 1700.93 102)"></path>
    <path fill="#7ea2b6" d="M265,106L293,106C293.594,106 294.077,105.552 294.077,105C294.077,104.448 293.594,104 293,104L265,104C264.406,104 263.923,104.448 263.923,105C263.923,105.552 264.406,106 265,106Z" transform="matrix(.92857 0 0 1 1700.93 106)"></path>
    <path fill="#7ea2b6" d="M1951,192L1951,203C1951,203.552 1951.45,204 1952,204C1952.55,204 1953,203.552 1953,203L1953,192L1956,192C1956,192.552 1956.45,193 1957,193C1957.55,193 1958,192.552 1958,192L1958,191C1958,190.448 1957.55,190 1957,190L1947,190C1946.45,190 1946,190.448 1946,191L1946,192C1946,192.552 1946.45,193 1947,193C1947.55,193 1948,192.552 1948,192L1951,192Z"></path>
  </g>
</svg>
